<svg id="svg" version="1.1" xmlns="http://www.w3.org/2000/svg" xmlns:xlink="http://www.w3.org/1999/xlink" width="400" height="400" viewBox="0, 0, 400,400"><g id="svgg"><path id="path0" d="M202.667 142.267 C 202.334 142.600,202.310 257.700,202.643 258.567 C 202.863 259.141,209.081 259.200,268.993 259.200 L 335.100 259.200 335.350 257.950 C 335.672 256.339,335.679 143.472,335.357 142.633 C 335.104 141.972,203.325 141.609,202.667 142.267 M268.597 168.497 C 268.740 169.874,268.800 182.700,268.729 197.000 L 268.600 223.000 267.296 225.255 C 265.259 228.779,260.967 231.572,256.283 232.421 C 254.936 232.665,253.376 233.102,252.817 233.391 C 252.258 233.680,250.180 234.117,248.200 234.362 C 246.220 234.607,243.880 235.056,243.000 235.360 C 238.087 237.055,233.865 236.395,234.962 234.102 C 235.252 233.496,235.939 232.010,236.489 230.800 C 239.259 224.709,240.592 222.368,241.382 222.210 C 241.832 222.120,243.550 221.862,245.200 221.636 C 246.850 221.411,248.913 220.860,249.785 220.413 C 250.656 219.966,251.753 219.600,252.222 219.600 C 252.692 219.600,253.599 219.149,254.238 218.598 C 254.877 218.046,255.712 217.495,256.094 217.372 C 257.189 217.021,259.030 214.988,259.574 213.530 C 259.848 212.799,260.349 211.681,260.689 211.047 C 261.347 209.821,262.294 200.142,261.865 199.025 C 261.536 198.168,260.905 198.240,260.610 199.170 C 260.475 199.593,259.941 200.565,259.423 201.329 C 258.904 202.092,258.354 203.115,258.200 203.600 C 257.942 204.414,256.761 206.397,255.515 208.108 C 254.803 209.087,252.588 207.747,251.799 205.859 C 251.495 205.132,250.966 204.304,250.623 204.019 C 250.280 203.735,250.000 203.279,250.000 203.007 C 250.000 202.734,249.519 201.812,248.931 200.956 C 247.716 199.186,247.658 197.672,248.746 196.072 C 250.176 193.969,252.156 190.602,253.611 187.800 C 254.068 186.920,254.927 185.364,255.521 184.341 C 256.114 183.319,257.101 181.609,257.714 180.541 C 258.327 179.474,259.265 177.880,259.797 177.000 C 260.330 176.120,261.145 174.680,261.607 173.800 C 266.382 164.721,268.070 163.441,268.597 168.497 M272.487 167.630 C 273.095 168.604,273.963 170.120,274.417 171.000 C 274.870 171.880,275.763 173.500,276.400 174.600 C 277.037 175.700,277.936 177.320,278.397 178.200 C 280.125 181.497,281.011 183.008,281.367 183.265 C 281.569 183.411,282.140 184.311,282.637 185.265 C 284.321 188.504,285.239 190.196,286.397 192.200 C 287.033 193.300,287.856 194.830,288.227 195.600 C 288.598 196.370,289.152 197.484,289.459 198.076 C 289.937 198.998,289.936 199.197,289.451 199.476 C 289.140 199.654,288.584 200.430,288.216 201.200 C 286.137 205.540,283.889 208.800,282.974 208.800 C 282.301 208.800,279.193 203.990,277.741 200.700 C 277.320 199.747,276.809 199.200,276.339 199.200 C 274.920 199.200,275.890 209.744,277.610 213.017 C 279.286 216.206,284.277 219.994,286.811 219.999 C 287.147 219.999,287.835 220.289,288.339 220.642 C 288.843 220.995,290.633 221.455,292.317 221.664 C 296.084 222.132,297.828 223.114,298.369 225.073 C 298.585 225.855,299.018 226.788,299.330 227.147 C 299.643 227.506,300.124 228.520,300.400 229.400 C 300.676 230.280,301.130 231.270,301.411 231.600 C 304.856 235.656,301.208 237.483,294.125 235.250 C 292.846 234.846,290.459 234.395,288.821 234.248 C 287.182 234.100,285.303 233.711,284.644 233.382 C 283.986 233.054,282.716 232.682,281.823 232.557 C 279.649 232.251,277.600 231.608,277.600 231.232 C 277.600 231.064,276.898 230.716,276.039 230.459 C 273.882 229.813,270.127 226.021,269.712 224.069 C 269.100 221.190,269.332 167.004,269.960 166.248 C 270.732 165.318,271.206 165.577,272.487 167.630 M274.893 197.600 C 274.893 198.370,274.975 198.685,275.076 198.300 C 275.176 197.915,275.176 197.285,275.076 196.900 C 274.975 196.515,274.893 196.830,274.893 197.600 " stroke="none" fill="#073566" fill-rule="evenodd"></path><path id="path1" d="M64.643 142.633 C 64.321 143.472,64.328 256.339,64.650 257.950 L 64.900 259.200 130.550 259.194 C 171.223 259.190,196.428 259.043,196.800 258.808 C 197.582 258.314,197.933 143.483,197.155 142.546 C 196.414 141.653,64.986 141.739,64.643 142.633 M97.400 176.591 C 98.500 177.132,99.591 177.581,99.825 177.587 C 100.058 177.594,100.604 177.915,101.038 178.300 C 104.104 181.019,105.137 181.606,105.760 180.983 C 106.096 180.646,107.053 180.090,107.886 179.746 C 108.719 179.402,109.670 178.885,110.000 178.597 C 110.330 178.310,111.410 177.861,112.400 177.600 C 113.390 177.339,114.534 176.827,114.942 176.463 C 116.215 175.326,126.475 175.504,128.594 176.700 C 129.471 177.195,130.415 177.600,130.692 177.600 C 130.969 177.600,132.051 178.449,133.098 179.487 C 135.142 181.515,135.887 181.662,137.542 180.360 C 138.073 179.942,138.726 179.600,138.993 179.600 C 139.259 179.600,139.893 179.239,140.402 178.798 C 140.910 178.358,142.046 177.803,142.927 177.566 C 143.807 177.329,144.986 176.834,145.546 176.467 C 146.370 175.927,147.598 175.800,152.012 175.800 C 158.387 175.800,161.105 176.728,164.105 179.928 C 164.377 180.219,164.928 180.759,165.329 181.128 C 165.729 181.498,166.321 182.340,166.643 183.000 C 166.965 183.660,167.535 184.740,167.908 185.400 C 168.838 187.041,168.971 224.627,168.051 225.737 C 167.235 226.722,156.767 226.724,155.949 225.739 C 155.508 225.208,155.377 221.916,155.285 209.039 C 155.180 194.456,155.102 192.855,154.433 191.400 C 154.028 190.520,153.598 189.504,153.477 189.141 C 153.245 188.448,150.093 187.786,147.800 187.949 C 145.520 188.111,142.400 188.858,142.400 189.243 C 142.400 189.455,141.596 189.973,140.613 190.395 C 138.296 191.387,138.434 190.267,138.308 209.133 C 138.205 224.574,138.167 225.289,137.424 225.833 C 136.117 226.787,126.374 226.631,125.144 225.636 L 124.200 224.872 124.000 207.917 C 123.777 188.977,123.832 189.335,120.962 188.387 C 118.469 187.565,113.548 188.063,111.630 189.333 C 110.743 189.920,109.855 190.400,109.656 190.400 C 109.457 190.400,108.831 191.008,108.265 191.751 L 107.235 193.101 107.117 209.183 C 106.977 228.369,107.772 226.400,100.173 226.400 C 93.108 226.400,93.840 228.421,93.600 208.239 C 93.408 192.089,93.367 191.365,92.600 190.564 C 92.160 190.105,91.607 189.396,91.371 188.988 C 90.529 187.531,82.101 187.861,80.381 189.418 C 78.817 190.833,76.822 191.565,76.206 190.949 C 74.833 189.576,74.882 181.465,76.269 180.483 C 78.565 178.859,80.666 177.614,81.122 177.607 C 81.409 177.603,82.399 177.259,83.322 176.843 C 86.971 175.196,94.297 175.065,97.400 176.591 " stroke="none" fill="#dd1f26" fill-rule="evenodd"></path><path id="path2" d="M0.000 200.000 L 0.000 400.000 200.000 400.000 L 400.000 400.000 400.000 200.000 L 400.000 0.000 200.000 0.000 L 0.000 0.000 0.000 200.000 M197.971 141.054 L 198.800 142.108 198.800 200.365 C 198.800 252.445,198.734 258.716,198.177 259.511 L 197.555 260.400 131.026 260.400 C 69.630 260.400,64.456 260.349,63.949 259.739 C 62.944 258.527,63.152 141.958,64.162 140.842 L 64.924 140.000 131.033 140.000 L 197.142 140.000 197.971 141.054 M335.771 140.768 C 336.640 141.728,336.824 258.807,335.959 259.850 C 335.218 260.742,202.722 260.665,201.829 259.771 C 200.873 258.816,200.867 142.254,201.823 140.889 L 202.445 140.000 268.761 140.000 C 333.661 140.000,335.091 140.016,335.771 140.768 M266.705 168.451 C 266.542 169.029,265.957 169.798,265.405 170.160 C 264.852 170.522,264.400 171.057,264.400 171.349 C 264.400 172.065,261.568 176.800,261.140 176.800 C 260.953 176.800,260.799 177.115,260.799 177.500 C 260.798 177.885,260.400 178.830,259.915 179.600 C 259.430 180.370,258.702 181.630,258.299 182.400 C 257.895 183.170,257.041 184.700,256.400 185.800 C 255.760 186.900,254.938 188.430,254.575 189.200 C 254.211 189.970,253.677 190.736,253.388 190.902 C 253.099 191.069,252.748 191.725,252.609 192.361 C 252.469 192.997,252.003 193.835,251.573 194.224 C 249.936 195.706,249.493 198.631,250.587 200.738 C 251.119 201.762,251.874 203.250,252.266 204.044 C 253.373 206.288,255.071 207.100,255.411 205.548 C 255.555 204.896,256.016 204.147,256.436 203.885 C 256.856 203.622,257.200 203.116,257.200 202.760 C 257.200 202.403,257.652 201.445,258.205 200.630 C 258.758 199.815,259.457 198.575,259.758 197.874 C 260.659 195.775,262.951 193.818,263.597 194.596 C 264.231 195.360,264.218 199.959,263.574 202.468 C 263.330 203.421,262.900 206.031,262.618 208.269 C 262.241 211.270,261.883 212.623,261.253 213.423 C 260.784 214.020,260.398 214.709,260.395 214.954 C 260.388 215.742,254.863 220.400,253.936 220.400 C 253.635 220.400,252.671 220.793,251.794 221.272 C 250.917 221.752,248.940 222.365,247.400 222.635 C 242.592 223.477,240.810 224.348,240.188 226.160 C 239.894 227.018,239.474 227.830,239.256 227.965 C 239.038 228.100,238.641 229.079,238.374 230.139 C 238.106 231.200,237.643 232.162,237.344 232.277 C 237.033 232.396,236.800 233.068,236.800 233.843 C 236.800 235.386,237.346 235.559,239.199 234.601 C 239.836 234.271,242.212 233.811,244.479 233.578 C 246.746 233.345,249.410 232.825,250.400 232.423 C 251.390 232.020,253.415 231.566,254.900 231.414 C 256.385 231.261,257.600 231.000,257.600 230.832 C 257.600 230.427,259.453 229.600,260.360 229.600 C 260.758 229.600,261.532 229.195,262.080 228.700 C 262.628 228.205,263.520 227.440,264.062 227.000 C 264.603 226.560,265.532 225.189,266.126 223.954 L 267.206 221.709 267.103 194.554 C 267.046 179.619,266.867 167.873,266.705 168.451 M270.635 168.800 C 270.488 169.350,270.420 181.860,270.484 196.600 L 270.600 223.400 271.692 225.000 C 272.293 225.880,272.923 226.733,273.092 226.896 C 274.442 228.194,276.082 229.191,277.493 229.571 C 278.412 229.819,279.417 230.274,279.727 230.584 C 280.036 230.893,281.799 231.351,283.645 231.601 C 285.490 231.850,287.380 232.300,287.845 232.600 C 288.309 232.900,290.615 233.324,292.968 233.542 C 295.586 233.785,297.621 234.184,298.209 234.569 C 300.720 236.214,301.587 235.369,300.198 232.632 C 299.649 231.550,299.200 230.363,299.200 229.994 C 299.200 229.626,298.853 229.010,298.429 228.626 C 298.005 228.243,297.543 227.247,297.402 226.413 C 297.105 224.653,294.091 223.090,290.084 222.618 C 287.885 222.358,286.000 221.691,286.000 221.171 C 286.000 221.006,285.294 220.751,284.431 220.605 C 283.567 220.459,282.393 219.948,281.821 219.470 C 279.015 217.124,277.200 215.417,277.200 215.124 C 277.200 214.946,276.864 214.464,276.453 214.053 C 275.986 213.586,275.602 212.423,275.429 210.953 C 275.277 209.659,274.858 207.970,274.498 207.200 C 273.666 205.421,273.269 196.166,273.969 194.859 C 274.691 193.508,275.562 193.845,276.400 195.800 C 276.824 196.790,277.344 197.600,277.555 197.600 C 277.766 197.600,278.154 198.275,278.418 199.100 C 278.682 199.925,279.216 200.960,279.603 201.400 C 279.991 201.840,280.443 202.650,280.608 203.200 C 280.773 203.750,281.041 204.290,281.204 204.400 C 281.366 204.510,281.874 205.219,282.331 205.975 L 283.163 207.350 283.551 206.330 C 283.764 205.768,284.206 205.207,284.532 205.082 C 284.858 204.956,285.248 204.294,285.398 203.609 C 285.548 202.925,286.060 202.002,286.536 201.559 C 287.801 200.381,287.779 196.468,286.500 195.106 C 286.005 194.580,285.600 193.871,285.600 193.533 C 285.600 193.194,285.166 192.449,284.636 191.876 C 284.105 191.304,283.554 190.303,283.411 189.651 C 283.268 189.000,282.902 188.371,282.598 188.255 C 282.294 188.138,281.826 187.313,281.559 186.421 C 281.292 185.530,280.915 184.800,280.722 184.800 C 280.529 184.800,280.043 184.032,279.640 183.094 C 279.238 182.156,278.615 181.144,278.255 180.845 C 277.895 180.547,277.600 179.990,277.600 179.609 C 277.600 179.228,277.166 178.449,276.636 177.876 C 276.105 177.304,275.551 176.288,275.404 175.618 C 275.257 174.948,274.961 174.400,274.746 174.400 C 274.531 174.400,274.000 173.597,273.566 172.617 C 273.132 171.636,272.597 170.722,272.377 170.586 C 272.157 170.450,271.735 169.768,271.439 169.069 L 270.902 167.800 270.635 168.800 M86.800 177.620 C 85.810 178.025,84.550 178.367,84.000 178.381 C 83.450 178.394,82.460 178.699,81.800 179.059 C 81.140 179.419,79.936 180.047,79.124 180.454 C 77.066 181.488,76.400 182.608,76.400 185.039 C 76.400 189.491,76.875 190.079,79.097 188.377 C 79.590 187.999,80.660 187.565,81.476 187.412 C 82.292 187.259,83.323 186.879,83.769 186.567 C 85.330 185.473,89.632 185.820,91.526 187.192 C 94.869 189.614,95.200 191.621,95.200 209.481 C 95.200 220.037,95.300 222.234,95.843 223.592 L 96.487 225.200 100.793 225.200 L 105.100 225.200 105.350 223.950 C 105.488 223.263,105.600 215.964,105.600 207.730 C 105.600 195.219,105.698 192.570,106.199 191.602 C 106.951 190.147,110.524 187.754,112.486 187.391 C 113.303 187.240,114.180 186.865,114.435 186.558 C 116.103 184.549,123.524 186.726,124.422 189.489 C 124.693 190.320,125.158 191.355,125.457 191.789 C 125.890 192.417,126.000 195.486,126.000 206.869 C 126.000 215.673,126.167 221.941,126.436 223.193 L 126.872 225.226 131.124 225.113 L 135.376 225.000 135.857 223.400 C 136.190 222.292,136.348 217.425,136.369 207.575 C 136.405 191.133,136.397 191.173,139.922 188.889 C 141.016 188.180,142.159 187.600,142.462 187.600 C 142.764 187.600,143.684 187.240,144.504 186.800 C 146.390 185.789,151.220 185.660,152.000 186.600 C 152.274 186.930,152.731 187.200,153.015 187.200 C 153.300 187.200,154.133 187.957,154.866 188.883 L 156.200 190.566 156.400 207.464 C 156.534 218.805,156.742 224.503,157.033 224.794 C 158.047 225.806,166.933 225.115,167.243 224.000 C 167.643 222.557,167.617 191.741,167.213 189.600 C 166.200 184.223,162.529 179.142,159.235 178.557 C 158.446 178.417,156.956 177.947,155.925 177.513 C 153.257 176.389,145.073 177.593,142.760 179.449 C 142.452 179.696,141.480 180.145,140.600 180.447 C 139.720 180.749,138.860 181.215,138.689 181.482 C 138.394 181.944,135.957 182.793,134.914 182.798 C 134.646 182.799,133.906 182.305,133.268 181.700 C 129.335 177.971,120.787 175.532,117.932 177.325 C 117.420 177.647,116.010 178.133,114.800 178.406 C 113.590 178.679,112.318 179.147,111.974 179.446 C 111.630 179.745,110.738 180.203,109.992 180.463 C 109.246 180.723,108.018 181.355,107.262 181.868 C 105.058 183.364,104.160 183.139,100.523 180.185 C 99.326 179.212,97.808 178.378,96.937 178.215 C 96.107 178.059,94.935 177.677,94.334 177.366 C 92.839 176.593,88.992 176.723,86.800 177.620 " stroke="none" fill="#fbfbfb" fill-rule="evenodd"></path><path id="path3" d="M64.162 140.842 C 63.152 141.958,62.944 258.527,63.949 259.739 C 64.456 260.349,69.630 260.400,131.026 260.400 L 197.555 260.400 198.177 259.511 C 198.734 258.716,198.800 252.445,198.800 200.365 L 198.800 142.108 197.971 141.054 L 197.142 140.000 131.033 140.000 L 64.924 140.000 64.162 140.842 M197.155 142.546 C 197.933 143.483,197.582 258.314,196.800 258.808 C 196.428 259.043,171.223 259.190,130.550 259.194 L 64.900 259.200 64.650 257.950 C 64.328 256.339,64.321 143.472,64.643 142.633 C 64.986 141.739,196.414 141.653,197.155 142.546 M85.800 175.889 C 85.360 175.997,84.245 176.426,83.322 176.843 C 82.399 177.259,81.409 177.603,81.122 177.607 C 80.666 177.614,78.565 178.859,76.269 180.483 C 74.882 181.465,74.833 189.576,76.206 190.949 C 76.822 191.565,78.817 190.833,80.381 189.418 C 82.101 187.861,90.529 187.531,91.371 188.988 C 91.607 189.396,92.160 190.105,92.600 190.564 C 93.367 191.365,93.408 192.089,93.600 208.239 C 93.840 228.421,93.108 226.400,100.173 226.400 C 107.772 226.400,106.977 228.369,107.117 209.183 L 107.235 193.101 108.265 191.751 C 108.831 191.008,109.457 190.400,109.656 190.400 C 109.855 190.400,110.743 189.920,111.630 189.333 C 113.548 188.063,118.469 187.565,120.962 188.387 C 123.832 189.335,123.777 188.977,124.000 207.917 L 124.200 224.872 125.144 225.636 C 126.374 226.631,136.117 226.787,137.424 225.833 C 138.167 225.289,138.205 224.574,138.308 209.133 C 138.434 190.267,138.296 191.387,140.613 190.395 C 141.596 189.973,142.400 189.455,142.400 189.243 C 142.400 188.858,145.520 188.111,147.800 187.949 C 150.093 187.786,153.245 188.448,153.477 189.141 C 153.598 189.504,154.028 190.520,154.433 191.400 C 155.102 192.855,155.180 194.456,155.285 209.039 C 155.377 221.916,155.508 225.208,155.949 225.739 C 156.767 226.724,167.235 226.722,168.051 225.737 C 168.971 224.627,168.838 187.041,167.908 185.400 C 167.535 184.740,166.965 183.660,166.643 183.000 C 166.321 182.340,165.729 181.498,165.329 181.128 C 164.928 180.759,164.377 180.219,164.105 179.928 C 161.105 176.728,158.387 175.800,152.012 175.800 C 147.598 175.800,146.370 175.927,145.546 176.467 C 144.986 176.834,143.807 177.329,142.927 177.566 C 142.046 177.803,140.910 178.358,140.402 178.798 C 139.893 179.239,139.259 179.600,138.993 179.600 C 138.726 179.600,138.073 179.942,137.542 180.360 C 135.887 181.662,135.142 181.515,133.098 179.487 C 132.051 178.449,130.969 177.600,130.692 177.600 C 130.415 177.600,129.471 177.195,128.594 176.700 C 126.475 175.504,116.215 175.326,114.942 176.463 C 114.534 176.827,113.390 177.339,112.400 177.600 C 111.410 177.861,110.330 178.310,110.000 178.597 C 109.670 178.885,108.719 179.402,107.886 179.746 C 107.053 180.090,106.096 180.646,105.760 180.983 C 105.137 181.606,104.104 181.019,101.038 178.300 C 100.604 177.915,100.058 177.594,99.825 177.587 C 99.591 177.581,98.500 177.132,97.400 176.591 C 95.442 175.628,88.562 175.212,85.800 175.889 M94.334 177.366 C 94.935 177.677,96.107 178.059,96.937 178.215 C 97.808 178.378,99.326 179.212,100.523 180.185 C 104.160 183.139,105.058 183.364,107.262 181.868 C 108.018 181.355,109.246 180.723,109.992 180.463 C 110.738 180.203,111.630 179.745,111.974 179.446 C 112.318 179.147,113.590 178.679,114.800 178.406 C 116.010 178.133,117.420 177.647,117.932 177.325 C 120.787 175.532,129.335 177.971,133.268 181.700 C 133.906 182.305,134.646 182.799,134.914 182.798 C 135.957 182.793,138.394 181.944,138.689 181.482 C 138.860 181.215,139.720 180.749,140.600 180.447 C 141.480 180.145,142.452 179.696,142.760 179.449 C 145.073 177.593,153.257 176.389,155.925 177.513 C 156.956 177.947,158.446 178.417,159.235 178.557 C 162.529 179.142,166.200 184.223,167.213 189.600 C 167.617 191.741,167.643 222.557,167.243 224.000 C 166.933 225.115,158.047 225.806,157.033 224.794 C 156.742 224.503,156.534 218.805,156.400 207.464 L 156.200 190.566 154.866 188.883 C 154.133 187.957,153.300 187.200,153.015 187.200 C 152.731 187.200,152.274 186.930,152.000 186.600 C 151.220 185.660,146.390 185.789,144.504 186.800 C 143.684 187.240,142.764 187.600,142.462 187.600 C 142.159 187.600,141.016 188.180,139.922 188.889 C 136.397 191.173,136.405 191.133,136.369 207.575 C 136.348 217.425,136.190 222.292,135.857 223.400 L 135.376 225.000 131.124 225.113 L 126.872 225.226 126.436 223.193 C 126.167 221.941,126.000 215.673,126.000 206.869 C 126.000 195.486,125.890 192.417,125.457 191.789 C 125.158 191.355,124.693 190.320,124.422 189.489 C 123.524 186.726,116.103 184.549,114.435 186.558 C 114.180 186.865,113.303 187.240,112.486 187.391 C 110.524 187.754,106.951 190.147,106.199 191.602 C 105.698 192.570,105.600 195.219,105.600 207.730 C 105.600 215.964,105.488 223.263,105.350 223.950 L 105.100 225.200 100.793 225.200 L 96.487 225.200 95.843 223.592 C 95.300 222.234,95.200 220.037,95.200 209.481 C 95.200 191.621,94.869 189.614,91.526 187.192 C 89.632 185.820,85.330 185.473,83.769 186.567 C 83.323 186.879,82.292 187.259,81.476 187.412 C 80.660 187.565,79.590 187.999,79.097 188.377 C 76.875 190.079,76.400 189.491,76.400 185.039 C 76.400 182.608,77.066 181.488,79.124 180.454 C 79.936 180.047,81.140 179.419,81.800 179.059 C 82.460 178.699,83.450 178.394,84.000 178.381 C 84.550 178.367,85.810 178.025,86.800 177.620 C 88.992 176.723,92.839 176.593,94.334 177.366 " stroke="none" fill="#fc9494" fill-rule="evenodd"></path><path id="path4" d="M201.823 140.889 C 200.867 142.254,200.873 258.816,201.829 259.771 C 202.722 260.665,335.218 260.742,335.959 259.850 C 336.824 258.807,336.640 141.728,335.771 140.768 C 335.091 140.016,333.661 140.000,268.761 140.000 L 202.445 140.000 201.823 140.889 M335.357 142.633 C 335.679 143.472,335.672 256.339,335.350 257.950 L 335.100 259.200 268.993 259.200 C 209.081 259.200,202.863 259.141,202.643 258.567 C 202.310 257.700,202.334 142.600,202.667 142.267 C 203.325 141.609,335.104 141.972,335.357 142.633 M265.339 167.466 C 263.787 169.804,263.060 171.037,261.607 173.800 C 261.145 174.680,260.330 176.120,259.797 177.000 C 259.265 177.880,258.327 179.474,257.714 180.541 C 257.101 181.609,256.114 183.319,255.521 184.341 C 254.927 185.364,254.068 186.920,253.611 187.800 C 252.156 190.602,250.176 193.969,248.746 196.072 C 247.658 197.672,247.716 199.186,248.931 200.956 C 249.519 201.812,250.000 202.734,250.000 203.007 C 250.000 203.279,250.280 203.735,250.623 204.019 C 250.966 204.304,251.495 205.132,251.799 205.859 C 252.588 207.747,254.803 209.087,255.515 208.108 C 256.761 206.397,257.942 204.414,258.200 203.600 C 258.354 203.115,258.904 202.092,259.423 201.329 C 259.941 200.565,260.475 199.593,260.610 199.170 C 260.905 198.240,261.536 198.168,261.865 199.025 C 262.294 200.142,261.347 209.821,260.689 211.047 C 260.349 211.681,259.848 212.799,259.574 213.530 C 259.030 214.988,257.189 217.021,256.094 217.372 C 255.712 217.495,254.877 218.046,254.238 218.598 C 253.599 219.149,252.692 219.600,252.222 219.600 C 251.753 219.600,250.656 219.966,249.785 220.413 C 248.913 220.860,246.850 221.411,245.200 221.636 C 243.550 221.862,241.832 222.120,241.382 222.210 C 240.592 222.368,239.259 224.709,236.489 230.800 C 235.939 232.010,235.252 233.496,234.962 234.102 C 233.865 236.395,238.087 237.055,243.000 235.360 C 243.880 235.056,246.220 234.607,248.200 234.362 C 250.180 234.117,252.258 233.680,252.817 233.391 C 253.376 233.102,254.936 232.665,256.283 232.421 C 260.967 231.572,265.259 228.779,267.296 225.255 L 268.600 223.000 268.729 197.000 C 268.895 163.380,268.771 162.295,265.339 167.466 M269.960 166.248 C 269.332 167.004,269.100 221.190,269.712 224.069 C 270.127 226.021,273.882 229.813,276.039 230.459 C 276.898 230.716,277.600 231.064,277.600 231.232 C 277.600 231.608,279.649 232.251,281.823 232.557 C 282.716 232.682,283.986 233.054,284.644 233.382 C 285.303 233.711,287.182 234.100,288.821 234.248 C 290.459 234.395,292.846 234.846,294.125 235.250 C 301.208 237.483,304.856 235.656,301.411 231.600 C 301.130 231.270,300.676 230.280,300.400 229.400 C 300.124 228.520,299.643 227.506,299.330 227.147 C 299.018 226.788,298.585 225.855,298.369 225.073 C 297.828 223.114,296.084 222.132,292.317 221.664 C 290.633 221.455,288.843 220.995,288.339 220.642 C 287.835 220.289,287.147 219.999,286.811 219.999 C 284.277 219.994,279.286 216.206,277.610 213.017 C 275.890 209.744,274.920 199.200,276.339 199.200 C 276.809 199.200,277.320 199.747,277.741 200.700 C 279.193 203.990,282.301 208.800,282.974 208.800 C 283.889 208.800,286.137 205.540,288.216 201.200 C 288.584 200.430,289.140 199.654,289.451 199.476 C 289.936 199.197,289.937 198.998,289.459 198.076 C 289.152 197.484,288.598 196.370,288.227 195.600 C 287.856 194.830,287.033 193.300,286.397 192.200 C 285.239 190.196,284.321 188.504,282.637 185.265 C 282.140 184.311,281.569 183.411,281.367 183.265 C 281.011 183.008,280.125 181.497,278.397 178.200 C 277.936 177.320,277.037 175.700,276.400 174.600 C 275.763 173.500,274.870 171.880,274.417 171.000 C 271.957 166.230,270.906 165.109,269.960 166.248 M266.126 223.954 C 265.532 225.189,264.603 226.560,264.062 227.000 C 263.520 227.440,262.628 228.205,262.080 228.700 C 261.532 229.195,260.758 229.600,260.360 229.600 C 259.453 229.600,257.600 230.427,257.600 230.832 C 257.600 231.000,256.385 231.261,254.900 231.414 C 253.415 231.566,251.390 232.020,250.400 232.423 C 249.410 232.825,246.746 233.345,244.479 233.578 C 242.212 233.811,239.836 234.271,239.199 234.601 C 237.346 235.559,236.800 235.386,236.800 233.843 C 236.800 233.068,237.033 232.396,237.344 232.277 C 237.643 232.162,238.106 231.200,238.374 230.139 C 238.641 229.079,239.038 228.100,239.256 227.965 C 239.474 227.830,239.894 227.018,240.188 226.160 C 240.810 224.348,242.592 223.477,247.400 222.635 C 248.940 222.365,250.917 221.752,251.794 221.272 C 252.671 220.793,253.635 220.400,253.936 220.400 C 254.863 220.400,260.388 215.742,260.395 214.954 C 260.398 214.709,260.784 214.020,261.253 213.423 C 261.883 212.623,262.241 211.270,262.618 208.269 C 262.900 206.031,263.330 203.421,263.574 202.468 C 264.218 199.959,264.231 195.360,263.597 194.596 C 262.951 193.818,260.659 195.775,259.758 197.874 C 259.457 198.575,258.758 199.815,258.205 200.630 C 257.652 201.445,257.200 202.403,257.200 202.760 C 257.200 203.116,256.856 203.622,256.436 203.885 C 256.016 204.147,255.555 204.896,255.411 205.548 C 255.071 207.100,253.373 206.288,252.266 204.044 C 251.874 203.250,251.119 201.762,250.587 200.738 C 249.493 198.631,249.936 195.706,251.573 194.224 C 252.003 193.835,252.469 192.997,252.609 192.361 C 252.748 191.725,253.099 191.069,253.388 190.902 C 253.677 190.736,254.211 189.970,254.575 189.200 C 254.938 188.430,255.760 186.900,256.400 185.800 C 257.041 184.700,257.895 183.170,258.299 182.400 C 258.702 181.630,259.430 180.370,259.915 179.600 C 260.400 178.830,260.798 177.885,260.799 177.500 C 260.799 177.115,260.953 176.800,261.140 176.800 C 261.568 176.800,264.400 172.065,264.400 171.349 C 264.400 171.057,264.852 170.522,265.405 170.160 C 265.957 169.798,266.542 169.029,266.705 168.451 C 266.867 167.873,267.046 179.619,267.103 194.554 L 267.206 221.709 266.126 223.954 M272.377 170.586 C 272.597 170.722,273.132 171.636,273.566 172.617 C 274.000 173.597,274.531 174.400,274.746 174.400 C 274.961 174.400,275.257 174.948,275.404 175.618 C 275.551 176.288,276.105 177.304,276.636 177.876 C 277.166 178.449,277.600 179.228,277.600 179.609 C 277.600 179.990,277.895 180.547,278.255 180.845 C 278.615 181.144,279.238 182.156,279.640 183.094 C 280.043 184.032,280.529 184.800,280.722 184.800 C 280.915 184.800,281.292 185.530,281.559 186.421 C 281.826 187.313,282.294 188.138,282.598 188.255 C 282.902 188.371,283.268 189.000,283.411 189.651 C 283.554 190.303,284.105 191.304,284.636 191.876 C 285.166 192.449,285.600 193.194,285.600 193.533 C 285.600 193.871,286.005 194.580,286.500 195.106 C 287.779 196.468,287.801 200.381,286.536 201.559 C 286.060 202.002,285.548 202.925,285.398 203.609 C 285.248 204.294,284.858 204.956,284.532 205.082 C 284.206 205.207,283.764 205.768,283.551 206.330 L 283.163 207.350 282.331 205.975 C 281.874 205.219,281.366 204.510,281.204 204.400 C 281.041 204.290,280.773 203.750,280.608 203.200 C 280.443 202.650,279.991 201.840,279.603 201.400 C 279.216 200.960,278.682 199.925,278.418 199.100 C 278.154 198.275,277.766 197.600,277.555 197.600 C 277.344 197.600,276.824 196.790,276.400 195.800 C 275.562 193.845,274.691 193.508,273.969 194.859 C 273.269 196.166,273.666 205.421,274.498 207.200 C 274.858 207.970,275.277 209.659,275.429 210.953 C 275.602 212.423,275.986 213.586,276.453 214.053 C 276.864 214.464,277.200 214.946,277.200 215.124 C 277.200 215.417,279.015 217.124,281.821 219.470 C 282.393 219.948,283.567 220.459,284.431 220.605 C 285.294 220.751,286.000 221.006,286.000 221.171 C 286.000 221.691,287.885 222.358,290.084 222.618 C 294.091 223.090,297.105 224.653,297.402 226.413 C 297.543 227.247,298.005 228.243,298.429 228.626 C 298.853 229.010,299.200 229.626,299.200 229.994 C 299.200 230.363,299.649 231.550,300.198 232.632 C 301.587 235.369,300.720 236.214,298.209 234.569 C 297.621 234.184,295.586 233.785,292.968 233.542 C 290.615 233.324,288.309 232.900,287.845 232.600 C 287.380 232.300,285.490 231.850,283.645 231.601 C 281.799 231.351,280.036 230.893,279.727 230.584 C 279.417 230.274,278.412 229.819,277.493 229.571 C 276.082 229.191,274.442 228.194,273.092 226.896 C 272.923 226.733,272.293 225.880,271.692 225.000 L 270.600 223.400 270.484 196.600 C 270.420 181.860,270.488 169.350,270.635 168.800 L 270.902 167.800 271.439 169.069 C 271.735 169.768,272.157 170.450,272.377 170.586 M275.076 198.300 C 274.975 198.685,274.893 198.370,274.893 197.600 C 274.893 196.830,274.975 196.515,275.076 196.900 C 275.176 197.285,275.176 197.915,275.076 198.300 " stroke="none" fill="#8ea7c1" fill-rule="evenodd"></path></g></svg>