<?xml version="1.0" encoding="UTF-8"?>
<svg version="1.1" xmlns="http://www.w3.org/2000/svg" width="417" height="121">
<path d="M0 0 C137.61 0 275.22 0 417 0 C417 39.93 417 79.86 417 121 C279.39 121 141.78 121 0 121 C0 81.07 0 41.14 0 0 Z " fill="#394248" transform="translate(0,0)"/>
<path d="M0 0 C137.61 0 275.22 0 417 0 C417 14.19 417 28.38 417 43 C279.39 43 141.78 43 0 43 C0 28.81 0 14.62 0 0 Z " fill="#7C7D7D" transform="translate(0,78)"/>
<path d="M0 0 C137.61 0 275.22 0 417 0 C417 7.92 417 15.84 417 24 C398.5002888 24.2214542 380.00035194 24.40484859 361.5 24.5625 C360.75559237 24.56888284 360.01118474 24.57526568 359.2442193 24.58184195 C282.59469992 25.23524514 205.94611154 24.88680972 129.29585314 24.57217997 C126.93060724 24.56247171 124.56536123 24.55279052 122.2001152 24.54311228 C81.46667697 24.3762521 40.73331483 24.19469587 0 24 C0 16.08 0 8.16 0 0 Z " fill="#39444A" transform="translate(0,54)"/>
<path d="M0 0 C137.61 0 275.22 0 417 0 C417 6.6 417 13.2 417 20 C279.39 20 141.78 20 0 20 C0 13.4 0 6.8 0 0 Z " fill="#7F7F7F" transform="translate(0,101)"/>
<path d="M0 0 C137.61 0 275.22 0 417 0 C417 6.27 417 12.54 417 19 C279.39 19 141.78 19 0 19 C0 12.73 0 6.46 0 0 Z " fill="#6F7376" transform="translate(0,0)"/>
<path d="M0 0 C137.61 0 275.22 0 417 0 C417 4.29 417 8.58 417 13 C398.5003497 13.22501526 380.00033251 13.40484875 361.5 13.5625 C360.75559237 13.56888284 360.01118474 13.57526568 359.2442193 13.58184195 C282.59469992 14.23524514 205.94611154 13.88680972 129.29585314 13.57217997 C126.93060724 13.56247171 124.56536123 13.55279052 122.2001152 13.54311228 C81.46667752 13.37625211 40.73331223 13.19514667 0 13 C0 8.71 0 4.42 0 0 Z " fill="#32424C" transform="translate(0,19)"/>
<path d="M0 0 C137.61 0 275.22 0 417 0 C417 2.97 417 5.94 417 9 C398.5003497 9.22501526 380.00033251 9.40484875 361.5 9.5625 C360.75559237 9.56888284 360.01118474 9.57526568 359.2442193 9.58184195 C282.59469992 10.23524514 205.94611154 9.88680972 129.29585314 9.57217997 C126.93060724 9.56247171 124.56536123 9.55279052 122.2001152 9.54311228 C81.46667752 9.37625211 40.73331223 9.19514667 0 9 C0 6.03 0 3.06 0 0 Z " fill="#2F3B42" transform="translate(0,69)"/>
<path d="M0 0 C9.07649898 0.03643741 18.15301891 0.06517842 27.22954547 0.09375555 C43.39456853 0.14483615 59.55956697 0.20140052 75.72455772 0.26180107 C91.35703514 0.32019925 106.98951873 0.37577321 122.62201865 0.42781669 C124.08579436 0.43269127 124.08579436 0.43269127 125.5791413 0.43766433 C130.4783583 0.45396287 135.37757547 0.47020871 140.27679272 0.48642844 C180.43885456 0.61945932 220.60088013 0.76155043 260.76288779 0.90999443 C260.76288779 3.21999443 260.76288779 5.52999443 260.76288779 7.90999443 C198.00998011 9.11183577 135.25335131 9.06585717 72.49175632 9.03945521 C61.67563563 9.03499747 50.85952587 9.0357982 40.04340537 9.04036552 C-25.38874031 9.06728202 -90.81168667 8.97879335 -156.23711221 7.90999443 C-156.23711221 5.59999443 -156.23711221 3.28999443 -156.23711221 0.90999443 C-104.15326754 0.13460436 -52.08902787 -0.21066246 0 0 Z " fill="#5B6B75" transform="translate(156.23711220547557,46.090005572885275)"/>
<path d="M0 0 C137.61 0 275.22 0 417 0 C417 2.31 417 4.62 417 7 C279.39 7 141.78 7 0 7 C0 4.69 0 2.38 0 0 Z " fill="#475259" transform="translate(0,40)"/>
<path d="M0 0 C137.61 0 275.22 0 417 0 C417 2.31 417 4.62 417 7 C279.39 7 141.78 7 0 7 C0 4.69 0 2.38 0 0 Z " fill="#4B575F" transform="translate(0,54)"/>
<path d="M0 0 C137.61 0 275.22 0 417 0 C417 1.98 417 3.96 417 6 C386.31255652 6.17740855 355.6250539 6.34286933 324.9375 6.5 C323.77820764 6.50594854 322.61891527 6.51189708 321.42449284 6.51802588 C244.40773332 6.9124256 167.39275511 7.09183758 90.375 7.0625 C89.22752965 7.06207577 88.08005931 7.06165154 86.89781713 7.06121445 C57.93186963 7.0503201 28.9659334 7.03057625 0 7 C0 4.69 0 2.38 0 0 Z " fill="#5B5E61" transform="translate(0,78)"/>
<path d="M0 0 C137.61 0 275.22 0 417 0 C417 1.98 417 3.96 417 6 C343.00074741 6.62715353 269.00221494 7.12595826 195 7.125 C193.83305493 7.12501511 193.83305493 7.12501511 192.64253521 7.12503052 C128.42509099 7.12419896 64.21368329 6.68141981 0 6 C0 4.02 0 2.04 0 0 Z " fill="#474A4C" transform="translate(0,0)"/>
<path d="M0 0 C137.61 0 275.22 0 417 0 C417 1.98 417 3.96 417 6 C279.39 6 141.78 6 0 6 C0 4.02 0 2.04 0 0 Z " fill="#2A3238" transform="translate(0,19)"/>
<path d="M0 0 C137.61 0 275.22 0 417 0 C417 1.32 417 2.64 417 4 C398.5003497 4.22501526 380.00033251 4.40484875 361.5 4.5625 C360.75559237 4.56888284 360.01118474 4.57526568 359.2442193 4.58184195 C282.59469992 5.23524514 205.94611154 4.88680972 129.29585314 4.57217997 C126.93060724 4.56247171 124.56536123 4.55279052 122.2001152 4.54311228 C81.46667752 4.37625211 40.73331223 4.19514667 0 4 C0 2.68 0 1.36 0 0 Z " fill="#3D4B53" transform="translate(0,74)"/>
<path d="M0 0 C9.07649898 0.03643741 18.15301891 0.06517842 27.22954547 0.09375555 C43.39456853 0.14483615 59.55956697 0.20140052 75.72455772 0.26180107 C91.35703514 0.32019925 106.98951873 0.37577321 122.62201865 0.42781669 C124.08579436 0.43269127 124.08579436 0.43269127 125.5791413 0.43766433 C130.4783583 0.45396287 135.37757547 0.47020871 140.27679272 0.48642844 C180.43885456 0.61945932 220.60088013 0.76155043 260.76288779 0.90999443 C260.76288779 1.89999443 260.76288779 2.88999443 260.76288779 3.90999443 C123.15288779 3.90999443 -14.45711221 3.90999443 -156.23711221 3.90999443 C-156.23711221 2.91999443 -156.23711221 1.92999443 -156.23711221 0.90999443 C-104.15326754 0.13460436 -52.08902787 -0.21066246 0 0 Z " fill="#2B353B" transform="translate(156.23711220547557,46.090005572885275)"/>
<path d="M0 0 C137.61 0 275.22 0 417 0 C417 0.99 417 1.98 417 3 C398.5003497 3.22501526 380.00033251 3.40484875 361.5 3.5625 C360.75559237 3.56888284 360.01118474 3.57526568 359.2442193 3.58184195 C282.59469992 4.23524514 205.94611154 3.88680972 129.29585314 3.57217997 C126.93060724 3.56247171 124.56536123 3.55279052 122.2001152 3.54311228 C81.46667752 3.37625211 40.73331223 3.19514667 0 3 C0 2.01 0 1.02 0 0 Z " fill="#202C33" transform="translate(0,25)"/>
<path d="M0 0 C137.61 0 275.22 0 417 0 C417 0.99 417 1.98 417 3 C279.39 3 141.78 3 0 3 C0 2.01 0 1.02 0 0 Z " fill="#858C91" transform="translate(0,16)"/>
<path d="M0 0 C137.61 0 275.22 0 417 0 C417 0.99 417 1.98 417 3 C279.39 3 141.78 3 0 3 C0 2.01 0 1.02 0 0 Z " fill="#494B4D" transform="translate(0,13)"/>
<path d="M0 0 C137.61 0 275.22 0 417 0 C417 0.99 417 1.98 417 3 C279.39 3 141.78 3 0 3 C0 2.01 0 1.02 0 0 Z " fill="#92969A" transform="translate(0,0)"/>
<path d="M0 0 C137.61 0 275.22 0 417 0 C417 0.99 417 1.98 417 3 C279.39 3 141.78 3 0 3 C0 2.01 0 1.02 0 0 Z " fill="#5C6C76" transform="translate(0,78)"/>
<path d="M0 0 C137.61 0 275.22 0 417 0 C417 0.99 417 1.98 417 3 C279.39 3 141.78 3 0 3 C0 2.01 0 1.02 0 0 Z " fill="#596A74" transform="translate(0,32)"/>
<path d="M0 0 C137.61 0 275.22 0 417 0 C417 0.99 417 1.98 417 3 C279.39 3 141.78 3 0 3 C0 2.01 0 1.02 0 0 Z " fill="#4A5E6B" transform="translate(0,22)"/>
<path d="M0 0 C137.61 0 275.22 0 417 0 C417 0.99 417 1.98 417 3 C279.39 3 141.78 3 0 3 C0 2.01 0 1.02 0 0 Z " fill="#66747C" transform="translate(0,40)"/>
<path d="M0 0 C137.61 0 275.22 0 417 0 C417 0.99 417 1.98 417 3 C279.39 3 141.78 3 0 3 C0 2.01 0 1.02 0 0 Z " fill="#64727A" transform="translate(0,66)"/>
<path d="M0 0 C10.20158152 0.00728539 20.40316168 0.00866214 30.60474543 0.00979571 C48.78629802 0.01196533 66.96784604 0.01856766 85.14939616 0.02809832 C102.77407041 0.03732726 120.3987434 0.044381 138.02341959 0.04860613 C139.11625995 0.04886885 140.20910031 0.04913158 141.33505705 0.04940226 C146.81944358 0.05070763 152.30383013 0.05197126 157.78821668 0.05321417 C203.03304334 0.06352148 248.27786502 0.08108158 293.52268717 0.10353777 C293.52268717 1.09353777 293.52268717 2.08353777 293.52268717 3.10353777 C155.91268717 3.10353777 18.30268717 3.10353777 -123.47731283 3.10353777 C-123.47731283 2.44353777 -123.47731283 1.78353777 -123.47731283 1.10353777 C-82.32345527 -0.15238299 -41.16807299 -0.03023007 0 0 Z " fill="#929698" transform="translate(123.47731282934546,9.896462228149176)"/>
<path d="M0 0 C137.61 0 275.22 0 417 0 C417 0.99 417 1.98 417 3 C279.39 3 141.78 3 0 3 C0 2.01 0 1.02 0 0 Z " fill="#69747B" transform="translate(0,58)"/>
<path d="M0 0 C1.16666419 0.00042423 2.33332838 0.00084846 3.53534603 0.00128555 C33.04440563 0.01220116 62.55345418 0.03198731 92.0625 0.0625 C92.0625 1.0525 92.0625 2.0425 92.0625 3.0625 C-45.5475 3.0625 -183.1575 3.0625 -324.9375 3.0625 C-324.9375 2.4025 -324.9375 1.7425 -324.9375 1.0625 C-294.81255958 0.88470833 -264.68755671 0.71933066 -234.5625 0.5625 C-233.42235616 0.55655146 -232.28221232 0.55060292 -231.10751867 0.54447412 C-154.07141882 0.14337501 -77.03712155 -0.02886026 0 0 Z " fill="#969797" transform="translate(324.9375,83.9375)"/>
<path d="M0 0 C9.07649898 0.03643741 18.15301891 0.06517842 27.22954547 0.09375555 C43.39456853 0.14483615 59.55956697 0.20140052 75.72455772 0.26180107 C91.35703514 0.32019925 106.98951873 0.37577321 122.62201865 0.42781669 C124.08579436 0.43269127 124.08579436 0.43269127 125.5791413 0.43766433 C130.4783583 0.45396287 135.37757547 0.47020871 140.27679272 0.48642844 C180.43885456 0.61945932 220.60088013 0.76155043 260.76288779 0.90999443 C260.76288779 1.23999443 260.76288779 1.56999443 260.76288779 1.90999443 C198.00998011 3.11183577 135.25335131 3.06585717 72.49175632 3.03945521 C61.67563563 3.03499747 50.85952587 3.0357982 40.04340537 3.04036552 C-25.38874031 3.06728202 -90.81168667 2.97879335 -156.23711221 1.90999443 C-156.23711221 1.57999443 -156.23711221 1.24999443 -156.23711221 0.90999443 C-104.15326754 0.13460436 -52.08902787 -0.21066246 0 0 Z " fill="#00090F" transform="translate(156.23711220547557,52.090005572885275)"/>
</svg>
